<svg id="visual" viewBox="0 0 900 600" width="900" height="600" xmlns="http://www.w3.org/2000/svg" xmlns:xlink="http://www.w3.org/1999/xlink" version="1.1"><rect x="0" y="0" width="900" height="600" fill="#001220"></rect><defs><linearGradient id="grad1_0" x1="33.3%" y1="0%" x2="100%" y2="100%"><stop offset="20%" stop-color="#001220" stop-opacity="1"></stop><stop offset="80%" stop-color="#001220" stop-opacity="1"></stop></linearGradient></defs><defs><linearGradient id="grad2_0" x1="0%" y1="0%" x2="66.7%" y2="100%"><stop offset="20%" stop-color="#001220" stop-opacity="1"></stop><stop offset="80%" stop-color="#001220" stop-opacity="1"></stop></linearGradient></defs><g transform="translate(900, 0)"><path d="M0 378.6C-33.1 355.4 -66.2 332.2 -105.4 324.3C-144.6 316.4 -190 323.8 -222.5 306.3C-255.1 288.8 -274.8 246.5 -287.2 208.7C-299.6 170.9 -304.6 137.5 -318.6 103.5C-332.6 69.5 -355.6 34.7 -378.6 0L0 0Z" fill="#FBAE3C"></path></g><g transform="translate(0, 600)"><path d="M0 -378.6C33.1 -355.8 66.2 -333 105.7 -325.3C145.1 -317.5 190.9 -324.9 222.5 -306.3C254.1 -287.7 271.5 -243.1 281.5 -204.5C291.5 -166 294.2 -133.5 309.1 -100.4C324 -67.3 351.3 -33.7 378.6 0L0 0Z" fill="#FBAE3C"></path></g></svg>