<svg xmlns="http://www.w3.org/2000/svg" version="1.1" xmlns:xlink="http://www.w3.org/1999/xlink" xmlns:svgjs="http://svgjs.dev/svgjs" width="1500" height="1500" viewBox="0 0 1500 1500"><g transform="matrix(1,0,0,1,0,0)"><svg viewBox="0 0 280 280" data-background-color="#0c1d36" preserveAspectRatio="xMidYMid meet" height="1500" width="1500" xmlns="http://www.w3.org/2000/svg" xmlns:xlink="http://www.w3.org/1999/xlink"><g id="tight-bounds" transform="matrix(1,0,0,1,0,0)"><svg viewBox="0 0 280 280" height="280" width="280"><g><svg viewBox="0 0 280 280" height="280" width="280"><g><svg viewBox="0 0 280 280" height="280" width="280"><g id="textblocktransform"><svg viewBox="0 0 280 280" height="280" width="280" id="textblock"><g><svg viewBox="0 0 280 280" height="280" width="280"><g transform="matrix(1,0,0,1,94.75631850818219,90.50252531694167)"><svg viewBox="0 0 90.48736298363562 98.99494936611666" height="98.99494936611666" width="90.48736298363562"><g id="icon-0"><svg xmlns="http://www.w3.org/2000/svg" viewBox="2 4.205 51 55.795" x="0" y="0" height="98.99494936611666" width="90.48736298363562" class="icon-xg-0" data-fill-palette-color="accent" id="xg-0"><g fill="#f9f9f9" data-fill-palette-color="accent"><path d="M11 21a3.009 3.009 0 0 1-3 3 1 1 0 0 0 0 2 3.009 3.009 0 0 1 3 3 1 1 0 0 0 2 0 3.009 3.009 0 0 1 3-3 1 1 0 0 0 0-2 3.009 3.009 0 0 1-3-3 1 1 0 0 0-2 0Z" fill="#f9f9f9" data-fill-palette-color="accent"></path><path d="M6 19a1 1 0 0 0 2 0 3.009 3.009 0 0 1 3-3 1 1 0 0 0 0-2 3.009 3.009 0 0 1-3-3 1 1 0 0 0-2 0 3.009 3.009 0 0 1-3 3 1 1 0 0 0 0 2A3.009 3.009 0 0 1 6 19Z" fill="#f9f9f9" data-fill-palette-color="accent"></path><polygon points="53 4.205 23 9.83 23 19.795 53 14.17 53 4.205" fill="#f9f9f9" data-fill-palette-color="accent"></polygon><circle cx="18" cy="53" r="7.0" fill="#f9f9f9" data-fill-palette-color="accent"></circle><path d="M25 21.455l-2 0.375v23.692a9.071 9.071 0 0 1 2 1.834Z" fill="#f9f9f9" data-fill-palette-color="accent"></path><circle cx="46" cy="45" r="7.0" fill="#f9f9f9" data-fill-palette-color="accent"></circle><path d="M53 16.205l-2 0.375v20.942a9.071 9.071 0 0 1 2 1.834Z" fill="#f9f9f9" data-fill-palette-color="accent"></path></g></svg></g></svg></g><g id="text-0"><path d="M32.708 101.69l-29.412-0.8 1.174-3.21 23.866 0.968-18.857-14.656 1.174-3.209 22.976 18.39zM29.113 111.514l-26.197-9.586 1.027-2.807 16.158 5.361 10.217 3.739zM25.802 88.904l-15.803-6.334 1.027-2.807 26.198 9.586-1.205 3.294z" fill="#f9cc0b" data-fill-palette-color="primary"></path><path d="M45.27 63.339l-15.788-11.677 2.097-2.836 15.788 11.677c1.687 1.248 2.8 2.57 3.337 3.967 0.537 1.397 0.646 2.791 0.326 4.182-0.324 1.388-0.935 2.688-1.831 3.9v0c-0.96 1.298-2.05 2.297-3.269 2.997-1.225 0.696-2.573 0.976-4.042 0.84-1.465-0.142-3.041-0.837-4.728-2.084v0l-15.789-11.677 2.086-2.82 15.788 11.677c1.169 0.865 2.205 1.375 3.107 1.53 0.911 0.153 1.725 0.024 2.442-0.387 0.721-0.417 1.386-1.036 1.994-1.859v0c0.612-0.828 1.012-1.647 1.199-2.459 0.183-0.806 0.068-1.622-0.345-2.448-0.412-0.817-1.203-1.658-2.372-2.523z" fill="#f9cc0b" data-fill-palette-color="primary"></path><path d="M68.008 43.842v0c-0.411-0.505-0.834-0.905-1.272-1.201-0.437-0.295-0.933-0.479-1.487-0.55-0.559-0.076-1.221-0.043-1.986 0.1-0.766 0.152-1.683 0.414-2.751 0.786v0c-1.151 0.405-2.247 0.706-3.287 0.9-1.041 0.204-2.024 0.259-2.949 0.163-0.921-0.09-1.786-0.349-2.597-0.777-0.806-0.423-1.553-1.057-2.24-1.903v0c-0.683-0.84-1.169-1.738-1.458-2.692-0.284-0.95-0.372-1.91-0.262-2.882 0.11-0.971 0.424-1.916 0.944-2.834 0.524-0.914 1.255-1.752 2.193-2.515v0c1.407-1.144 2.846-1.8 4.317-1.97 1.467-0.165 2.854 0.046 4.163 0.635 1.303 0.592 2.416 1.455 3.338 2.589v0l-2.737 2.225c-0.662-0.814-1.38-1.429-2.154-1.844-0.774-0.415-1.583-0.579-2.428-0.491-0.844 0.078-1.709 0.478-2.595 1.198v0c-0.788 0.641-1.312 1.324-1.571 2.048-0.264 0.728-0.303 1.454-0.118 2.176 0.181 0.717 0.546 1.414 1.095 2.089v0c0.373 0.459 0.79 0.809 1.251 1.05 0.461 0.241 0.985 0.385 1.571 0.431 0.595 0.047 1.251 0.002 1.968-0.137 0.718-0.138 1.52-0.363 2.407-0.673v0c1.337-0.514 2.556-0.863 3.656-1.046 1.105-0.188 2.109-0.212 3.01-0.072 0.906 0.145 1.744 0.461 2.516 0.946 0.766 0.49 1.491 1.155 2.174 1.995v0c0.721 0.886 1.223 1.805 1.508 2.754 0.289 0.955 0.363 1.909 0.222 2.863-0.146 0.958-0.5 1.891-1.061 2.802-0.565 0.905-1.338 1.755-2.317 2.551v0c-0.855 0.696-1.801 1.238-2.838 1.627-1.046 0.388-2.127 0.574-3.244 0.558-1.117-0.016-2.205-0.27-3.265-0.762-1.063-0.497-2.035-1.286-2.914-2.368v0l2.736-2.225c0.608 0.747 1.238 1.296 1.891 1.647 0.644 0.35 1.301 0.543 1.973 0.578 0.667 0.031 1.318-0.074 1.952-0.315 0.634-0.242 1.24-0.597 1.817-1.067v0c0.794-0.645 1.345-1.325 1.655-2.039 0.315-0.718 0.399-1.446 0.254-2.183-0.146-0.737-0.506-1.459-1.08-2.165z" fill="#f9cc0b" data-fill-palette-color="primary"></path><path d="M72.536 16.368l3.097-1.688 13.352 24.493-3.096 1.688z" fill="#f9cc0b" data-fill-palette-color="primary"></path><path d="M112.359 21.747v0l3.383-0.998c0.452 1.861 0.547 3.554 0.283 5.079-0.265 1.519-0.914 2.818-1.945 3.898-1.034 1.074-2.48 1.885-4.34 2.434v0c-1.338 0.395-2.622 0.49-3.853 0.285-1.233-0.211-2.377-0.697-3.433-1.459-1.062-0.76-1.998-1.772-2.807-3.036-0.816-1.262-1.478-2.756-1.988-4.483v0l-1.46-4.949c-0.506-1.714-0.755-3.323-0.75-4.828 0-1.503 0.243-2.862 0.729-4.079 0.486-1.217 1.211-2.255 2.176-3.115 0.967-0.853 2.161-1.489 3.582-1.908v0c1.746-0.515 3.322-0.606 4.729-0.274 1.409 0.339 2.637 1.074 3.684 2.206 1.049 1.138 1.896 2.657 2.539 4.559v0l-3.382 0.998c-0.505-1.382-1.064-2.467-1.678-3.255-0.618-0.78-1.336-1.278-2.154-1.494-0.814-0.224-1.775-0.172-2.884 0.155v0c-0.975 0.288-1.764 0.735-2.367 1.343-0.599 0.599-1.019 1.333-1.262 2.2-0.251 0.863-0.336 1.841-0.256 2.933 0.071 1.087 0.294 2.264 0.668 3.532v0l1.469 4.978c0.346 1.172 0.765 2.24 1.257 3.203 0.492 0.963 1.061 1.764 1.707 2.405 0.652 0.638 1.382 1.071 2.19 1.296 0.816 0.23 1.714 0.201 2.695-0.089v0c1.236-0.365 2.154-0.857 2.753-1.477 0.608-0.616 0.956-1.418 1.045-2.407 0.091-0.983-0.019-2.2-0.33-3.653z" fill="#f9cc0b" data-fill-palette-color="primary"></path><path d="M138.153 0.017l0.035 2.471-7.058 25.59-3.595 0.081 8.357-28.091zM148.521 27.687l-3.595 0.081-8.202-25.247-0.085-2.47 2.271-0.051zM131.247 17.742l13.446-0.303 0.068 3.028-13.446 0.303z" fill="#f9cc0b" data-fill-palette-color="primary"></path><path d="M162.779 26.93l11.329 2.384-0.62 2.944-11.329-2.384zM165.077 1.981l3.452 0.726-5.746 27.299-3.451-0.727z" fill="#f9cc0b" data-fill-palette-color="primary"></path><path d="M202.351 46.658l6.35-5.799 15.091-13.082 2.027 1.481-5.538 5.331-15.903 13.551zM213.803 20.474l2.823 2.064-8.444 17.461-4.367 7.729-1.995-1.458zM213.065 54.49l6.1-6.488 13.998-13.376 2.831 2.07-20.935 19.252zM224.146 28.035l1.995 1.458-7.99 18.274-3.63 7.787-2.027-1.482 8.254-19.142z" fill="#f9cc0b" data-fill-palette-color="primary"></path><path d="M248.154 49.262l2.328 2.649-20.957 18.413-2.328-2.65z" fill="#f9cc0b" data-fill-palette-color="primary"></path><path d="M261.483 67.83l1.717 3.081-24.368 13.58-1.717-3.081zM267.972 79.475l2.052 3.681-16.037-2.047-8.639-1.606 3.144-2.483 6.725 0.975zM245.995 97.345l-2.041-3.664 7.878-13.8 3.581 0.388z" fill="#f9cc0b" data-fill-palette-color="primary"></path><path d="M275.972 98.865l1.112 3.347-26.472 8.798-1.113-3.347z" fill="#f9cc0b" data-fill-palette-color="primary"></path><path d="M13.19 192.498l23.274-18.644 1.192 3.245-19.088 14.899 24.183-1.03 1.192 3.245-29.815 0.838zM9.535 182.548l26.54-9.75 1.045 2.843-16.006 6.442-10.353 3.803zM26.913 197.869l16.367-5.46 1.044 2.843-26.541 9.75-1.223-3.33z" fill="#f9cc0b" data-fill-palette-color="primary"></path><path d="M42.084 226.291l15.981-11.868 2.133 2.872-15.982 11.867c-1.706 1.267-3.318 1.955-4.834 2.064-1.516 0.108-2.9-0.2-4.15-0.927-1.252-0.717-2.333-1.688-3.244-2.914v0c-0.974-1.312-1.619-2.665-1.935-4.06-0.322-1.391-0.197-2.778 0.372-4.161 0.57-1.383 1.708-2.708 3.414-3.975v0l15.982-11.868 2.12 2.855-15.981 11.868c-1.184 0.879-1.984 1.734-2.402 2.565-0.413 0.836-0.523 1.663-0.33 2.48 0.187 0.821 0.59 1.647 1.208 2.478v0c0.626 0.843 1.304 1.472 2.035 1.889 0.726 0.421 1.547 0.551 2.463 0.392 0.916-0.159 1.966-0.678 3.15-1.557z" fill="#f9cc0b" data-fill-palette-color="primary"></path><path d="M64.091 248.389v0c0.418-0.516 0.726-1.023 0.924-1.521 0.203-0.494 0.282-1.024 0.236-1.59-0.04-0.562-0.212-1.21-0.516-1.944-0.313-0.732-0.762-1.587-1.346-2.564v0c-0.649-1.056-1.18-2.079-1.591-3.07-0.411-0.991-0.668-1.956-0.772-2.894-0.102-0.929-0.026-1.841 0.229-2.737 0.256-0.886 0.731-1.758 1.426-2.615v0c0.694-0.857 1.48-1.528 2.359-2.012 0.885-0.48 1.82-0.77 2.806-0.869 0.982-0.094 1.983 0.02 3.004 0.343 1.017 0.328 2.005 0.88 2.966 1.657v0c1.425 1.154 2.373 2.442 2.843 3.866 0.471 1.424 0.55 2.847 0.236 4.268-0.314 1.412-0.937 2.694-1.869 3.845v0l-2.772-2.244c0.669-0.826 1.128-1.668 1.378-2.525 0.25-0.857 0.244-1.695-0.017-2.514-0.261-0.818-0.838-1.588-1.73-2.311v0c-0.805-0.652-1.594-1.034-2.366-1.147-0.771-0.103-1.496 0.011-2.175 0.342-0.678 0.331-1.295 0.84-1.851 1.527v0c-0.376 0.465-0.637 0.95-0.782 1.456-0.14 0.511-0.172 1.062-0.095 1.654 0.072 0.597 0.255 1.236 0.549 1.918 0.284 0.683 0.673 1.433 1.164 2.251v0c0.789 1.22 1.391 2.357 1.804 3.409 0.417 1.047 0.649 2.038 0.695 2.973 0.051 0.93-0.089 1.825-0.419 2.686-0.32 0.86-0.828 1.719-1.521 2.576v0c-0.723 0.893-1.526 1.584-2.41 2.074-0.885 0.48-1.815 0.748-2.791 0.803-0.981 0.061-1.979-0.094-2.996-0.464-1.021-0.365-2.029-0.951-3.025-1.757v0c-0.867-0.702-1.599-1.53-2.195-2.483-0.605-0.952-1.018-1.983-1.239-3.092-0.215-1.106-0.188-2.238 0.082-3.395 0.27-1.157 0.851-2.285 1.741-3.385v0l2.772 2.244c-0.614 0.759-1.028 1.497-1.241 2.214-0.213 0.717-0.265 1.409-0.157 2.077 0.104 0.674 0.345 1.3 0.722 1.88 0.372 0.575 0.85 1.098 1.433 1.57v0c0.805 0.652 1.596 1.058 2.374 1.217 0.773 0.164 1.512 0.096 2.217-0.205 0.701-0.296 1.34-0.8 1.916-1.512z" fill="#f9cc0b" data-fill-palette-color="primary"></path><path d="M89.583 239.559l3.134 1.703-13.501 24.843-3.134-1.703z" fill="#f9cc0b" data-fill-palette-color="primary"></path><path d="M111.73 268.038v0l3.431 1.009c-0.636 1.834-1.484 3.326-2.541 4.476-1.066 1.154-2.333 1.907-3.8 2.257-1.473 0.349-3.156 0.245-5.049-0.311v0c-1.351-0.397-2.496-1.025-3.435-1.882-0.932-0.856-1.64-1.898-2.123-3.127-0.485-1.223-0.724-2.598-0.718-4.126 0.004-1.522 0.264-3.159 0.78-4.912v0l1.472-5.008c0.512-1.74 1.181-3.249 2.007-4.53 0.828-1.286 1.784-2.311 2.867-3.072 1.084-0.768 2.272-1.253 3.564-1.455 1.292-0.202 2.661-0.09 4.107 0.336v0c1.759 0.517 3.147 1.306 4.164 2.367 1.017 1.061 1.662 2.365 1.934 3.912 0.267 1.539 0.153 3.295-0.345 5.268v0l-3.431-1.009c0.331-1.454 0.449-2.682 0.357-3.686-0.097-1.012-0.433-1.834-1.009-2.467-0.575-0.633-1.421-1.114-2.536-1.441v0c-0.994-0.292-1.912-0.348-2.755-0.167-0.844 0.188-1.608 0.583-2.291 1.186-0.689 0.601-1.3 1.383-1.832 2.348-0.535 0.971-0.991 2.097-1.368 3.378v0l-1.484 5.047c-0.35 1.192-0.579 2.333-0.684 3.423-0.112 1.089-0.069 2.084 0.129 2.987 0.198 0.903 0.581 1.673 1.148 2.31 0.574 0.639 1.354 1.104 2.342 1.395v0c1.255 0.369 2.309 0.458 3.162 0.266 0.855-0.199 1.591-0.692 2.21-1.479 0.613-0.789 1.188-1.887 1.727-3.293z" fill="#f9cc0b" data-fill-palette-color="primary"></path><path d="M139.105 251.522l-0.073 2.5-8.274 25.605-3.646-0.077 9.702-28.076zM148.388 280l-3.646-0.077-7.184-25.932 0.013-2.501 2.311 0.049zM131.328 269.166l13.636 0.288-0.065 3.068-13.636-0.288z" fill="#f9cc0b" data-fill-palette-color="primary"></path><path d="M165.967 274.374l11.481-2.43 0.632 2.982-11.482 2.431zM157.876 250.302l3.499-0.741 5.857 27.662-3.5 0.741z" fill="#f9cc0b" data-fill-palette-color="primary"></path><path d="M214.639 257.032l-3.657-7.917-7.991-18.597 2.051-1.5 3.444 6.986 8.203 19.528zM192.86 237.931l2.871-2.1 14.274 13.518 6.121 6.594-2.018 1.477zM225.501 249.083l-4.396-7.881-8.618-17.632 2.862-2.094 12.171 26.131zM203.345 230.26l2.026-1.483 15.187 13.331 6.415 5.899-2.051 1.5-15.961-13.851z" fill="#f9cc0b" data-fill-palette-color="primary"></path><path d="M221.665 214.245l2.354-2.679 21.244 18.658-2.354 2.68z" fill="#f9cc0b" data-fill-palette-color="primary"></path><path d="M230.589 201.911l1.742-3.124 24.696 13.769-1.742 3.124zM237.173 190.103l2.076-3.725 6.778 14.912 3.225 8.311-3.813-1.384-2.749-6.323zM264.29 199.529l-2.072 3.716-16.099 0.56-1.565-3.291z" fill="#f9cc0b" data-fill-palette-color="primary"></path><path d="M242.453 176.907l1.128-3.383 26.824 8.941-1.128 3.384z" fill="#f9cc0b" data-fill-palette-color="primary"></path><path d="M3.437 143.421c0-5.965 4.836-10.801 10.801-10.801 5.965 0 10.801 4.836 10.801 10.801 0 5.965-4.836 10.801-10.801 10.801-5.965 0-10.801-4.836-10.801-10.801z" fill="#f9cc0b" data-fill-palette-color="primary"></path><path d="M254.509 143.421c0-5.965 4.836-10.801 10.801-10.801 5.965 0 10.801 4.836 10.801 10.801 0 5.965-4.836 10.801-10.801 10.801-5.965 0-10.801-4.836-10.801-10.801z" fill="#f9cc0b" data-fill-palette-color="primary"></path></g><g id="text-1"></g></svg></g></svg></g></svg></g><g></g></svg></g><defs></defs></svg><rect width="280" height="280" fill="none" stroke="none" visibility="hidden"></rect></g></svg></g></svg>