<svg xmlns="http://www.w3.org/2000/svg" xmlns:xlink="http://www.w3.org/1999/xlink" xmlns:svgjs="http://svgjs.dev/svgjs" version="1.1" width="1500" height="1500" viewBox="0 0 1500 1500"><g transform="matrix(1,0,0,1,0,0)"><svg xmlns="http://www.w3.org/2000/svg" xmlns:xlink="http://www.w3.org/1999/xlink" viewBox="0 0 280 280" data-background-color="#f8f5f0" preserveAspectRatio="xMidYMid meet" height="1500" width="1500"><g id="tight-bounds" transform="matrix(1,0,0,1,0,0)"><svg viewBox="0 0 280 280" height="280" width="280"><g><svg viewBox="0 0 280 280" height="280" width="280"><g><svg viewBox="0 0 280 280" height="280" width="280"><g id="textblocktransform"><svg viewBox="0 0 280 280" height="280" width="280" id="textblock"><g><svg viewBox="0 0 280 280" height="280" width="280"><g transform="matrix(1,0,0,1,94.75631850818219,90.50252531694167)"><svg viewBox="0 0 90.48736298363562 98.99494936611666" height="98.99494936611666" width="90.48736298363562"><g id="icon-0"><svg xmlns="http://www.w3.org/2000/svg" viewBox="2 4.205 51 55.795" x="0" y="0" height="98.99494936611666" width="90.48736298363562" class="icon-xg-0" data-fill-palette-color="accent" id="xg-0"><g fill="#dfa46d" data-fill-palette-color="accent"><path d="M11 21a3.009 3.009 0 0 1-3 3 1 1 0 0 0 0 2 3.009 3.009 0 0 1 3 3 1 1 0 0 0 2 0 3.009 3.009 0 0 1 3-3 1 1 0 0 0 0-2 3.009 3.009 0 0 1-3-3 1 1 0 0 0-2 0Z" fill="#dfa46d" data-fill-palette-color="accent"/><path d="M6 19a1 1 0 0 0 2 0 3.009 3.009 0 0 1 3-3 1 1 0 0 0 0-2 3.009 3.009 0 0 1-3-3 1 1 0 0 0-2 0 3.009 3.009 0 0 1-3 3 1 1 0 0 0 0 2A3.009 3.009 0 0 1 6 19Z" fill="#dfa46d" data-fill-palette-color="accent"/><polygon points="53 4.205 23 9.83 23 19.795 53 14.17 53 4.205" fill="#dfa46d" data-fill-palette-color="accent"/><circle cx="18" cy="53" r="7.0" fill="#dfa46d" data-fill-palette-color="accent"/><path d="M25 21.455l-2 0.375v23.692a9.071 9.071 0 0 1 2 1.834Z" fill="#dfa46d" data-fill-palette-color="accent"/><circle cx="46" cy="45" r="7.0" fill="#dfa46d" data-fill-palette-color="accent"/><path d="M53 16.205l-2 0.375v20.942a9.071 9.071 0 0 1 2 1.834Z" fill="#dfa46d" data-fill-palette-color="accent"/></g></svg></g></svg></g><g id="text-0"><path d="M2.918 101.929l1.554-4.248 23.882 0.984-18.88-14.654 1.554-4.247 26.198 9.586-1.205 3.293-10.198-3.731-10.114-4.051 17.915 14.332-0.92 2.517-22.846-0.626 10.264 3.406 10.199 3.732-1.205 3.293z" fill="#1a1a1a" data-fill-palette-color="primary"/><path d="M29.477 51.671l2.097-2.836 15.941 11.79c2.11 1.593 3.317 3.44 3.622 5.541 0.305 2.101-0.342 4.233-1.942 6.395v0c-1.643 2.222-3.484 3.483-5.524 3.783-2.04 0.301-4.157-0.344-6.352-1.934v0l-15.941-11.789 2.074-2.804 15.836 11.713c1.511 1.118 2.875 1.631 4.092 1.538 1.216-0.092 2.354-0.853 3.412-2.284v0c1.062-1.437 1.459-2.75 1.191-3.94-0.268-1.19-1.158-2.344-2.67-3.461v0z" fill="#1a1a1a" data-fill-palette-color="primary"/><path d="M68.009 43.845v0c-0.876-1.077-1.839-1.668-2.891-1.772-1.053-0.095-2.564 0.205-4.534 0.899-1.97 0.694-3.602 1.071-4.897 1.13-1.299 0.055-2.462-0.139-3.488-0.58-1.021-0.445-1.934-1.163-2.739-2.152v0c-1.395-1.716-1.971-3.594-1.727-5.632 0.244-2.038 1.29-3.809 3.141-5.313v0c1.273-1.035 2.635-1.671 4.085-1.909 1.455-0.232 2.861-0.061 4.218 0.514 1.357 0.575 2.528 1.467 3.512 2.678v0l-2.737 2.225c-1.089-1.34-2.253-2.114-3.492-2.322-1.243-0.213-2.471 0.172-3.682 1.156v0c-1.098 0.892-1.697 1.893-1.797 3.002-0.11 1.108 0.286 2.216 1.186 3.324v0c0.742 0.912 1.689 1.409 2.842 1.49 1.157 0.086 2.618-0.185 4.383-0.815v0c2.698-1.029 4.925-1.401 6.681-1.116 1.755 0.285 3.31 1.26 4.663 2.924v0c1.429 1.758 2.003 3.628 1.722 5.611-0.29 1.982-1.414 3.768-3.372 5.36v0c-1.263 1.026-2.647 1.698-4.153 2.014-1.515 0.316-2.981 0.223-4.398-0.277-1.426-0.501-2.663-1.396-3.71-2.685v0l2.737-2.224c1.089 1.34 2.312 2.075 3.667 2.206 1.355 0.14 2.676-0.314 3.966-1.361v0c1.196-0.972 1.846-2.014 1.951-3.128 0.104-1.104-0.275-2.186-1.137-3.247z" fill="#1a1a1a" data-fill-palette-color="primary"/><path d="M75.624 14.686l13.353 24.493-3.079 1.679-13.353-24.493z" fill="#1a1a1a" data-fill-palette-color="primary"/><path d="M112.364 21.77l3.402-1.003c0.699 2.91 0.539 5.339-0.479 7.287-1.018 1.948-2.862 3.316-5.531 4.104v0c-2.682 0.791-5.114 0.4-7.295-1.173-2.187-1.571-3.796-4.102-4.825-7.594v0l-1.432-4.854c-1.026-3.478-1.024-6.467 0.005-8.966 1.029-2.499 2.945-4.161 5.749-4.987v0c2.587-0.763 4.815-0.579 6.686 0.552 1.871 1.131 3.294 3.118 4.271 5.96v0l-3.402 1.003c-0.789-2.136-1.706-3.555-2.752-4.258-1.047-0.709-2.364-0.83-3.95-0.362v0c-1.822 0.537-3.013 1.664-3.573 3.381-0.56 1.716-0.434 3.954 0.379 6.712v0l1.449 4.912c0.798 2.708 1.869 4.649 3.213 5.825 1.336 1.171 2.879 1.498 4.631 0.982 1.752-0.517 2.886-1.322 3.402-2.416 0.514-1.1 0.531-2.802 0.052-5.105z" fill="#1a1a1a" data-fill-palette-color="primary"/><path d="M144.951 27.769l-2.364-7.232-9.422 0.21-2.009 7.33-3.596 0.08 8.363-28.09 3.008-0.067 9.616 27.689zM137.526 4.934l-3.512 12.765 7.599-0.17z" fill="#1a1a1a" data-fill-palette-color="primary"/><path d="M168.547 2.71l-5.128 24.354 10.705 2.254-0.62 2.944-14.156-2.98 5.748-27.298z" fill="#1a1a1a" data-fill-palette-color="primary"/><path d="M216.623 22.534l-8.463 17.471-1.557 2.738 2.079-1.899 15.092-13.084 2.364 1.729-7.988 18.274-1.219 2.614 2.22-2.363 14.009-13.393 2.832 2.07-20.95 19.241-2.55-1.863 8.237-19.155 0.743-1.506-1.209 1.165-15.887 13.564-2.574-1.882 11.997-25.785z" fill="#1a1a1a" data-fill-palette-color="primary"/><path d="M250.473 51.897l-20.956 18.414-2.315-2.635 20.956-18.414z" fill="#1a1a1a" data-fill-palette-color="primary"/><path d="M243.961 93.691l7.431-13.071-4.224-0.783-8.337 4.646-1.707-3.064 24.369-13.578 1.707 3.063-11.767 6.557 3.783 0.526 12.756 1.481 2.056 3.691-15.144-1.941-8.881 16.137z" fill="#1a1a1a" data-fill-palette-color="primary"/><path d="M277.082 102.192l-26.472 8.8-1.106-3.328 26.472-8.8z" fill="#1a1a1a" data-fill-palette-color="primary"/><path d="M36.078 172.799l1.58 4.301-19.113 14.887 24.201-1.036 1.581 4.302-26.541 9.75-1.223-3.33 10.334-3.796 10.466-3.494-23.24 0.65-0.937-2.553 18.085-14.477-10.174 4.088-10.334 3.796-1.226-3.338z" fill="#1a1a1a" data-fill-palette-color="primary"/><path d="M58.061 214.416l2.132 2.872-16.133 11.98c-2.17 1.578-4.319 2.206-6.446 1.883-2.127-0.324-4.004-1.581-5.631-3.773v0c-1.667-2.245-2.348-4.404-2.041-6.476 0.31-2.067 1.561-3.931 3.752-5.592v0l16.134-11.98 2.109 2.839-16.03 11.904c-1.525 1.133-2.425 2.305-2.699 3.518-0.269 1.209 0.133 2.536 1.207 3.981v0c1.081 1.456 2.237 2.227 3.468 2.314 1.24 0.088 2.623-0.434 4.148-1.567v0z" fill="#1a1a1a" data-fill-palette-color="primary"/><path d="M64.093 248.389v0c0.89-1.1 1.274-2.181 1.153-3.246-0.121-1.064-0.733-2.499-1.835-4.305-1.107-1.81-1.824-3.352-2.152-4.626-0.323-1.269-0.372-2.459-0.149-3.568 0.223-1.11 0.742-2.168 1.557-3.175v0c1.408-1.74 3.151-2.705 5.228-2.895 2.073-0.185 4.051 0.485 5.935 2.01v0c1.286 1.041 2.198 2.257 2.736 3.65 0.539 1.393 0.663 2.823 0.374 4.289-0.29 1.466-0.932 2.814-1.926 4.042v0l-2.772-2.244c1.103-1.363 1.628-2.681 1.574-3.955-0.054-1.274-0.693-2.406-1.916-3.397v0c-1.12-0.907-2.24-1.297-3.361-1.169-1.12 0.127-2.136 0.754-3.046 1.879v0c-0.748 0.924-1.042 1.968-0.882 3.132 0.16 1.164 0.734 2.556 1.722 4.175v0c1.586 2.463 2.42 4.595 2.501 6.396 0.085 1.795-0.558 3.539-1.928 5.232v0c-1.442 1.781-3.173 2.738-5.195 2.871-2.026 0.138-4.035-0.6-6.028-2.213v0c-1.275-1.032-2.229-2.266-2.862-3.701-0.633-1.435-0.847-2.907-0.642-4.417 0.2-1.513 0.83-2.926 1.892-4.237v0l2.772 2.244c-1.103 1.363-1.58 2.728-1.432 4.097 0.154 1.372 0.884 2.587 2.19 3.644v0c1.218 0.986 2.388 1.416 3.508 1.288 1.12-0.127 2.115-0.728 2.984-1.801z" fill="#1a1a1a" data-fill-palette-color="primary"/><path d="M92.708 241.258l-13.501 24.843-3.117-1.694 13.502-24.843z" fill="#1a1a1a" data-fill-palette-color="primary"/><path d="M111.727 268.045l3.451 1.014c-1.009 2.867-2.481 4.851-4.417 5.951-1.938 1.106-4.261 1.261-6.97 0.465v0c-2.715-0.798-4.571-2.468-5.568-5.011-0.993-2.535-0.969-5.574 0.073-9.117v0l1.443-4.913c1.037-3.53 2.679-6.077 4.924-7.64 2.247-1.569 4.795-1.935 7.644-1.098v0c2.619 0.77 4.414 2.152 5.385 4.148 0.973 1.989 1.095 4.462 0.365 7.417v0l-3.451-1.013c0.503-2.254 0.501-3.968-0.005-5.142-0.507-1.173-1.56-1.995-3.159-2.465v0c-1.854-0.545-3.491-0.24-4.911 0.914-1.419 1.154-2.54 3.13-3.362 5.928v0l-1.46 4.971c-0.807 2.747-0.961 4.989-0.461 6.728 0.493 1.737 1.626 2.866 3.397 3.387 1.778 0.522 3.188 0.459 4.23-0.19 1.044-0.655 1.995-2.1 2.852-4.334z" fill="#1a1a1a" data-fill-palette-color="primary"/><path d="M144.772 279.924l-2.076-7.428-9.553-0.2-2.356 7.334-3.645-0.076 9.696-28.078 3.048 0.064 8.532 28.46zM138.248 256.478l-4.114 12.769 7.71 0.162z" fill="#1a1a1a" data-fill-palette-color="primary"/><path d="M161.39 249.56l5.228 24.679 10.848-2.298 0.632 2.982-14.347 3.04-5.86-27.662z" fill="#1a1a1a" data-fill-palette-color="primary"/><path d="M195.729 235.836l14.269 13.546 2.168 2.339-1.202-2.588-7.99-18.598 2.396-1.753 15.186 13.332 2.159 1.989-1.6-2.879-8.629-17.648 2.863-2.095 12.152 26.144-2.581 1.888-15.977-13.839-1.222-1.181 0.748 1.528 8.217 19.516-2.597 1.901-21.23-19.502z" fill="#1a1a1a" data-fill-palette-color="primary"/><path d="M224.012 211.58l21.243 18.66-2.341 2.665-21.243-18.66z" fill="#1a1a1a" data-fill-palette-color="primary"/><path d="M262.227 203.236l-15.234 0.564 1.584 4.054 8.45 4.711-1.732 3.106-24.697-13.766 1.731-3.107 11.923 6.646-1.563-3.541-5.518-11.79 2.081-3.733 6.396 14.082 18.65-0.942z" fill="#1a1a1a" data-fill-palette-color="primary"/><path d="M243.58 173.542l26.823 8.944-1.122 3.365-26.823-8.944z" fill="#1a1a1a" data-fill-palette-color="primary"/><path d="M3.44 143.421c0-5.965 4.836-10.801 10.801-10.801 5.965 0 10.801 4.836 10.801 10.801 0 5.965-4.836 10.801-10.801 10.802-5.965 0-10.801-4.836-10.801-10.802z" fill="#1a1a1a" data-fill-palette-color="primary"/><path d="M254.513 143.421c0-5.965 4.836-10.801 10.801-10.801 5.965 0 10.801 4.836 10.801 10.801 0 5.965-4.836 10.801-10.801 10.802-5.965 0-10.801-4.836-10.801-10.802z" fill="#1a1a1a" data-fill-palette-color="primary"/></g><g id="text-1"/></svg></g></svg></g></svg></g><g/></svg></g><defs/></svg><rect width="280" height="280" fill="none" stroke="none" visibility="hidden"/></g></svg></g></svg>